<svg height="auto" viewBox="0 0 1089 530" xmlns="http://www.w3.org/2000/svg"><path d="M0 11.187c11.4 3.21 34.2 12.64 57 16.046 22.8 3.407 34.2-3.993 57 .985 22.8 4.978 34.2 18.177 57 23.906 22.8 5.73 34.2-10.315 57 4.741 22.8 15.057 34.2 53.46 57 70.541 22.8 17.082 34.2 9.375 57 14.868 22.8 5.493 34.2 2.405 57 12.599 22.8 10.193 34.2 37.668 57 38.367 22.8.7 34.2-40.031 57-34.873 22.8 5.157 34.2 46.107 57 60.662 22.8 14.555 34.2-6.728 57 12.112 22.8 18.84 34.2 89.035 57 82.086 22.8-6.95 34.2-118.1 57-116.834 22.8 1.265 34.2 112.9 57 123.161 22.8 10.262 34.2-57.963 57-71.853 22.8-13.89 34.2-20.28 57 2.403 22.8 22.683 34.2 83.345 57 111.014 22.8 27.67 34.2 13.887 57 27.33 22.8 13.445 45.6 31.913 57 39.891L1089 530H0Z" fill="#444cf71a"/><path d="M0 11.187c11.4 3.21 34.2 12.64 57 16.046 22.8 3.407 34.2-3.993 57 .985 22.8 4.978 34.2 18.177 57 23.906 22.8 5.73 34.2-10.315 57 4.741 22.8 15.057 34.2 53.46 57 70.541 22.8 17.082 34.2 9.375 57 14.868 22.8 5.493 34.2 2.405 57 12.599 22.8 10.193 34.2 37.668 57 38.367 22.8.7 34.2-40.031 57-34.873 22.8 5.157 34.2 46.107 57 60.662 22.8 14.555 34.2-6.728 57 12.112 22.8 18.84 34.2 89.035 57 82.086 22.8-6.95 34.2-118.1 57-116.834 22.8 1.265 34.2 112.9 57 123.161 22.8 10.262 34.2-57.963 57-71.853 22.8-13.89 34.2-20.28 57 2.403 22.8 22.683 34.2 83.345 57 111.014 22.8 27.67 34.2 13.887 57 27.33 22.8 13.445 45.6 31.913 57 39.891" fill="none" stroke="#444cf7" stroke-width="4"/></svg>