<svg height="auto" viewBox="0 0 80 80" xmlns="http://www.w3.org/2000/svg"><path d="M0 79.742c.52-.376 2.96-1.947 4-2.895s2.96-3.984 4-4.396c1.04-.412 2.96 2.115 4 1.229 1.04-.886 2.96-6.884 4-8.042 1.04-1.159 2.96-.798 4-.87 1.04-.071 2.96.506 4 .318 1.04-.19 2.96-.985 4-1.768s2.96-4.013 4-4.255c1.04-.241 2.96 4.315 4 2.397 1.04-1.917 2.96-15.357 4-17.15 1.04-1.793 2.96 3.828 4 3.359 1.04-.47 2.96-6.228 4-6.968 1.04-.74 2.96 3.142 4 1.275s2.96-16.105 4-15.636c1.04.47 2.96 17.64 4 19.248 1.04 1.609 2.96-6.65 4-6.872 1.04-.223 2.96 6.552 4 5.16 1.04-1.392 2.96-11.968 4-15.869 1.04-3.9 3.48-12.3 4-14.138L80 80H0Z" fill="#f7a8451a"/><path d="M0 79.742c.52-.376 2.96-1.947 4-2.895s2.96-3.984 4-4.396c1.04-.412 2.96 2.115 4 1.229 1.04-.886 2.96-6.884 4-8.042 1.04-1.159 2.96-.798 4-.87 1.04-.071 2.96.506 4 .318 1.04-.19 2.96-.985 4-1.768s2.96-4.013 4-4.255c1.04-.241 2.96 4.315 4 2.397 1.04-1.917 2.96-15.357 4-17.15 1.04-1.793 2.96 3.828 4 3.359 1.04-.47 2.96-6.228 4-6.968 1.04-.74 2.96 3.142 4 1.275s2.96-16.105 4-15.636c1.04.47 2.96 17.64 4 19.248 1.04 1.609 2.96-6.65 4-6.872 1.04-.223 2.96 6.552 4 5.16 1.04-1.392 2.96-11.968 4-15.869 1.04-3.9 3.48-12.3 4-14.138" fill="none" stroke="#f7a845" stroke-width="9"/><g fill="#f7a845"><circle cy="79.742" r="14"/><circle cx="4" cy="76.847" r="14"/><circle cx="8" cy="72.451" r="14"/><circle cx="12" cy="73.68" r="14"/><circle cx="16" cy="65.638" r="14"/><circle cx="20" cy="64.769" r="14"/><circle cx="24" cy="65.086" r="14"/><circle cx="28" cy="63.318" r="14"/><circle cx="32" cy="59.063" r="14"/><circle cx="36" cy="61.46" r="14"/><circle cx="40" cy="44.31" r="14"/><circle cx="44" cy="47.669" r="14"/><circle cx="48" cy="40.701" r="14"/><circle cx="52" cy="41.976" r="14"/><circle cx="56" cy="26.34" r="14"/><circle cx="60" cy="45.588" r="14"/><circle cx="64" cy="38.716" r="14"/><circle cx="68" cy="43.876" r="14"/><circle cx="72" cy="28.007" r="14"/><circle cx="76" cy="13.869" r="14"/></g></svg>