<svg height="auto" viewBox="0 0 610 100" xmlns="http://www.w3.org/2000/svg"><path d="M0 2.02c6.4.328 19.2 1 32 1.638 12.8.64 19.2-.27 32 1.557s19.2 6.472 32 7.578c12.8 1.105 19.2-2.928 32-2.052 12.8.877 19.2 3.244 32 6.436 12.8 3.19 19.2 6.748 32 9.52 12.8 2.772 19.2 2.906 32 4.342 12.8 1.436 19.2 1.53 32 2.839 12.8 1.307 19.2.723 32 3.7 12.8 2.978 19.2 8.226 32 11.186 12.8 2.959 19.2 2.267 32 3.61 12.8 1.344 19.2 4.671 32 3.107s19.2-9.645 32-10.927c12.8-1.283 19.2 2.6 32 4.514 12.8 1.913 19.2 4.324 32 5.052 12.8.729 19.2-2.154 32-1.41s19.2 4.906 32 5.13c12.8.225 19.2-4.798 32-4.006 12.8.793 25.6 6.376 32 7.97L610 100H0Z" fill="#444cf71a"/><path d="M0 2.02c6.4.328 19.2 1 32 1.638 12.8.64 19.2-.27 32 1.557s19.2 6.472 32 7.578c12.8 1.105 19.2-2.928 32-2.052 12.8.877 19.2 3.244 32 6.436 12.8 3.19 19.2 6.748 32 9.52 12.8 2.772 19.2 2.906 32 4.342 12.8 1.436 19.2 1.53 32 2.839 12.8 1.307 19.2.723 32 3.7 12.8 2.978 19.2 8.226 32 11.186 12.8 2.959 19.2 2.267 32 3.61 12.8 1.344 19.2 4.671 32 3.107s19.2-9.645 32-10.927c12.8-1.283 19.2 2.6 32 4.514 12.8 1.913 19.2 4.324 32 5.052 12.8.729 19.2-2.154 32-1.41s19.2 4.906 32 5.13c12.8.225 19.2-4.798 32-4.006 12.8.793 25.6 6.376 32 7.97" fill="none" stroke="#444cf7" stroke-width="4"/><g fill="#444cf7"><circle cy="2.02" r="8"/><circle cx="32" cy="3.658" r="8"/><circle cx="64" cy="5.215" r="8"/><circle cx="96" cy="12.793" r="8"/><circle cx="128" cy="10.741" r="8"/><circle cx="160" cy="17.177" r="8"/><circle cx="192" cy="26.697" r="8"/><circle cx="224" cy="31.039" r="8"/><circle cx="256" cy="33.878" r="8"/><circle cx="288" cy="37.578" r="8"/><circle cx="320" cy="48.764" r="8"/><circle cx="352" cy="52.374" r="8"/><circle cx="384" cy="55.481" r="8"/><circle cx="416" cy="44.554" r="8"/><circle cx="448" cy="49.068" r="8"/><circle cx="480" cy="54.12" r="8"/><circle cx="512" cy="52.71" r="8"/><circle cx="544" cy="57.841" r="8"/><circle cx="576" cy="53.834" r="8"/><circle cx="608" cy="61.804" r="8"/></g></svg>